<?xml version="1.0" encoding="UTF-8"?>
<!-- Generator: Adobe Illustrator 16.0.0, SVG Export Plug-In . SVG Version: 6.00 Build 0)  -->
<!DOCTYPE svg PUBLIC "-//W3C//DTD SVG 1.1//EN" "http://www.w3.org/Graphics/SVG/1.1/DTD/svg11.dtd">
<svg version="1.1" id="Layer_1" xmlns="http://www.w3.org/2000/svg" xmlns:xlink="http://www.w3.org/1999/xlink" x="0px" y="0px" width="387.5px" height="80px" viewBox="0 0 387.5 80" enable-background="new 0 0 387.5 80" xml:space="preserve">
<g>
	<path fill="#FFFFFF" d="M93.847,35.972c-0.515-1.211-4.812-10.713-6.294-13.982l-1.15,9.018c-0.152,1.211-0.424,3.602-0.455,4.479   h-3.722c0.394-1.634,0.969-5.447,1.241-7.505l0.968-6.931c0.273-2.027,0.756-6.083,0.877-7.747l1.604-0.212   c0.575,1.362,1.483,3.329,2.089,4.6l5.568,12.105l5.568-12.136c0.575-1.24,1.574-3.449,2.028-4.569h1.513   c0.182,1.786,0.726,5.962,0.999,7.928l0.968,6.961c0.272,2.027,0.938,5.871,1.271,7.505l-3.783,0.242   c-0.061-0.908-0.333-3.48-0.545-4.721l-1.18-9.079c-1.392,2.966-5.811,12.62-6.325,13.86L93.847,35.972z"/>
	<path fill="#FFFFFF" d="M114.942,35.941c-2.966,0-4.872-1.786-4.872-4.539c0-3.148,2.784-5.266,8.17-5.266   c0.424,0,0.878,0.03,1.333,0.061v-0.484c0.06-2.148-0.848-3.238-3.118-3.238c-1.604,0-3.329,0.667-4.418,1.483l-0.727-2.996   c1.694-0.968,3.692-1.574,5.81-1.574c4.177,0,6.083,2.36,5.993,6.113l-0.182,6.446c-0.03,0.938,0.243,1.301,0.969,1.301   c0.393,0,0.787-0.09,1.24-0.242l-0.272,2.391c-0.666,0.271-1.331,0.484-2.208,0.484c-1.392,0-2.633-0.817-2.875-2.603   C118.877,34.852,117.061,35.941,114.942,35.941z M119.452,29.798l0.061-1.513c-0.424-0.06-0.848-0.09-1.301-0.09   c-3.45,0-4.691,1.3-4.691,2.905c0,1.24,0.696,2.178,2.421,2.178C117.908,33.278,119.361,31.856,119.452,29.798z"/>
	<path fill="#FFFFFF" d="M138.67,35.487c0.182-1.453,0.242-3.752,0.242-5.72v-3.934c0-1.937-0.606-3.359-2.542-3.359   c-2.118,0-4.267,2.028-4.267,3.964v5.75c0,1.18,0.03,2.42,0.121,3.298h-3.994c0.15-1.453,0.211-3.572,0.211-5.539v-12.8   c0-1.937-0.061-4.086-0.211-5.509c1.18-0.09,2.996-0.271,3.994-0.482c-0.091,0.877-0.121,2.904-0.121,3.904v7.686   c1.271-2.148,3.602-3.359,5.508-3.359c3.359,0,4.933,2.118,4.933,5.629v7.021c0,1.18,0.091,2.572,0.151,3.45H138.67z"/>
	<path fill="#FFFFFF" d="M151.26,35.941c-2.966,0-4.873-1.786-4.873-4.539c0-3.148,2.785-5.266,8.171-5.266   c0.423,0,0.878,0.03,1.332,0.061v-0.484c0.061-2.148-0.848-3.238-3.117-3.238c-1.604,0-3.329,0.667-4.418,1.483l-0.727-2.996   c1.695-0.968,3.692-1.574,5.811-1.574c4.177,0,6.083,2.36,5.992,6.113l-0.182,6.446c-0.03,0.938,0.242,1.301,0.968,1.301   c0.394,0,0.787-0.09,1.241-0.242l-0.272,2.391c-0.666,0.271-1.332,0.484-2.209,0.484c-1.392,0-2.633-0.817-2.875-2.603   C155.194,34.852,153.378,35.941,151.26,35.941z M155.769,29.798l0.061-1.513c-0.424-0.06-0.848-0.09-1.302-0.09   c-3.45,0-4.691,1.3-4.691,2.905c0,1.24,0.696,2.178,2.421,2.178C154.226,33.278,155.679,31.856,155.769,29.798z"/>
	<path fill="#FFFFFF" d="M173.504,23.352c-2.33-0.394-5.084,0.696-5.084,3.177v5.508c0,1.18,0.03,2.572,0.121,3.45h-3.994   c0.181-1.453,0.211-3.752,0.211-5.72v-4.781c0-1.937-0.091-3.511-0.333-4.902c1.089-0.03,2.663-0.243,3.631-0.485l0.333,3.269   c1.21-2.148,2.905-3.178,5.508-3.48L173.504,23.352z"/>
	<path fill="#FFFFFF" d="M179.073,16.452c-1.331,0-2.239-1.028-2.239-2.148c0-1.332,0.969-2.391,2.331-2.391   c1.301,0,2.239,1.028,2.239,2.179C181.404,15.393,180.436,16.452,179.073,16.452z M176.895,35.487   c0.182-1.453,0.242-3.541,0.242-5.508V25.59c0-1.966-0.06-4.266-0.242-5.719c1.21,0,3.027-0.091,4.025-0.212   c-0.091,0.878-0.121,2.422-0.121,3.602v8.958c0,1.18,0.03,2.391,0.121,3.269H176.895z"/>
	<path fill="#FFFFFF" d="M196.172,20.628l-1.059,2.936c-1.06-0.756-2.452-1.21-3.843-1.21c-1.333,0-2.482,0.454-2.482,1.755   c0,2.36,7.959,1.846,7.959,6.749c0,3.298-2.844,5.236-6.325,5.236c-1.726,0-4.237-0.546-5.508-1.362l0.182-3.419   c1.361,1.029,3.511,1.816,5.356,1.816c1.634,0,2.785-0.636,2.785-1.755c0-2.875-7.899-2.027-7.899-7.111   c0-2.694,2.331-4.873,5.841-4.873C193.176,19.387,195.052,19.963,196.172,20.628z"/>
	<path fill="#FFFFFF" d="M210.91,35.487c0.183-1.453,0.243-3.752,0.243-5.72v-3.934c0-1.937-0.605-3.359-2.542-3.359   c-2.117,0-4.267,2.028-4.267,3.964v5.75c0,1.18,0.03,2.42,0.121,3.298h-3.994c0.152-1.453,0.211-3.572,0.211-5.539v-12.8   c0-1.937-0.06-4.086-0.211-5.509c1.179-0.09,2.995-0.271,3.994-0.482c-0.091,0.877-0.121,2.904-0.121,3.904v7.686   c1.271-2.148,3.602-3.359,5.507-3.359c3.359,0,4.934,2.118,4.934,5.629v7.021c0,1.18,0.091,2.572,0.151,3.45H210.91z"/>
	<path fill="#FFFFFF" d="M221.807,16.452c-1.331,0-2.238-1.028-2.238-2.148c0-1.332,0.968-2.391,2.329-2.391   c1.302,0,2.24,1.028,2.24,2.179C224.138,15.393,223.169,16.452,221.807,16.452z M219.628,35.487   c0.182-1.453,0.242-3.541,0.242-5.508V25.59c0-1.966-0.061-4.266-0.242-5.719c1.21,0,3.026-0.091,4.025-0.212   c-0.092,0.878-0.121,2.422-0.121,3.602v8.958c0,1.18,0.029,2.391,0.121,3.269H219.628z"/>
	<path fill="#FFFFFF" d="M254.672,18.025v8.232c0,3.631-0.816,5.629-2.48,7.232c-1.665,1.666-3.935,2.573-7.021,2.573   c-5.084,0-8.655-3.086-8.655-8.201v-6.779c0-1.997-0.062-6.021-0.212-7.505c1.241,0,2.996-0.03,4.023-0.151   c-0.089,0.909-0.119,3.39-0.119,4.6v8.836c0,4.389,2.148,5.992,5.537,5.992c3.33,0,5.235-2.027,5.235-5.386v-6.386   c0-1.997-0.06-6.021-0.242-7.505c1.241,0,3.027-0.03,4.085-0.151C254.702,14.334,254.672,16.815,254.672,18.025z"/>
	<path fill="#FFFFFF" d="M269.896,35.487c0.182-1.453,0.243-3.752,0.243-5.72v-3.934c0-1.937-0.606-3.359-2.543-3.359   c-2.117,0-4.267,2.058-4.267,3.964v5.599c0,1.18,0.029,2.572,0.121,3.45h-3.994c0.151-1.453,0.211-3.752,0.211-5.72v-4.206   c0-1.937-0.06-4.207-0.211-5.659c1.179,0,2.602-0.121,3.601-0.243l0.241,3.118c1.272-2.149,3.603-3.39,5.538-3.39   c3.36,0,4.934,2.118,4.934,5.629v7.021c0,1.18,0.091,2.572,0.151,3.45H269.896z"/>
	<path fill="#FFFFFF" d="M280.793,16.452c-1.332,0-2.239-1.028-2.239-2.148c0-1.332,0.967-2.391,2.33-2.391   c1.301,0,2.238,1.028,2.238,2.179C283.122,15.393,282.154,16.452,280.793,16.452z M278.613,35.487   c0.183-1.453,0.242-3.541,0.242-5.508V25.59c0-1.966-0.06-4.266-0.242-5.719c1.21,0,3.026-0.091,4.025-0.212   c-0.092,0.878-0.121,2.422-0.121,3.602v8.958c0,1.18,0.029,2.391,0.121,3.269H278.613z"/>
	<path fill="#FFFFFF" d="M290.083,30.161l-1.877-4.297c-0.877-1.998-1.875-4.388-2.662-5.84c0.152,0,3.783-0.395,3.904-0.395   l4.297,10.985l1.847-5.024c0.453-1.3,1.573-4.236,2.057-5.779c1.393,0,2.755-0.03,3.904-0.122l-6.598,15.918l-2.603,0.212   C291.839,34.247,290.931,32.158,290.083,30.161z"/>
	<path fill="#FFFFFF" d="M315.959,28.345l-9.2,0.272c0.212,2.935,1.756,4.418,4.661,4.418c2.392,0,4.176-0.999,5.72-2.179   l-0.121,3.359c-1.755,1.15-3.692,1.876-5.962,1.876c-5.356,0-7.899-3.692-7.899-7.989c0-4.903,3.179-8.716,8.051-8.716   c4.69,0,6.658,3.45,6.658,7.717L315.959,28.345z M314.507,26.016c-0.304-2.452-1.303-3.783-3.48-3.783   c-2.33,0-3.843,1.725-4.206,3.995L314.507,26.016z"/>
	<path fill="#FFFFFF" d="M330.516,23.352c-2.33-0.394-5.083,0.696-5.083,3.177v5.508c0,1.18,0.03,2.572,0.12,3.45h-3.993   c0.181-1.453,0.212-3.752,0.212-5.72v-4.781c0-1.937-0.092-3.511-0.334-4.902c1.09-0.03,2.663-0.243,3.631-0.485l0.334,3.269   c1.211-2.148,2.904-3.178,5.508-3.48L330.516,23.352z"/>
	<path fill="#FFFFFF" d="M344.348,20.628l-1.06,2.936c-1.06-0.756-2.451-1.21-3.843-1.21c-1.332,0-2.482,0.454-2.482,1.755   c0,2.36,7.959,1.846,7.959,6.749c0,3.298-2.844,5.236-6.324,5.236c-1.725,0-4.235-0.546-5.508-1.362l0.182-3.419   c1.36,1.029,3.51,1.816,5.356,1.816c1.636,0,2.784-0.636,2.784-1.755c0-2.875-7.898-2.027-7.898-7.111   c0-2.694,2.33-4.873,5.842-4.873C341.351,19.387,343.229,19.963,344.348,20.628z"/>
	<path fill="#FFFFFF" d="M350.796,16.452c-1.333,0-2.239-1.028-2.239-2.148c0-1.332,0.966-2.391,2.329-2.391   c1.302,0,2.24,1.028,2.24,2.179C353.126,15.393,352.157,16.452,350.796,16.452z M348.615,35.487   c0.183-1.453,0.242-3.541,0.242-5.508V25.59c0-1.966-0.06-4.266-0.242-5.719c1.212,0,3.027-0.091,4.026-0.212   c-0.091,0.878-0.121,2.422-0.121,3.602v8.958c0,1.18,0.03,2.391,0.121,3.269H348.615z"/>
	<path fill="#FFFFFF" d="M366.32,35.094c-0.758,0.574-2.149,0.878-3.239,0.878c-3.057,0-4.478-1.574-4.478-4.843v-8.443h-2.785   l0.817-2.936h2.027l0.303-3.298l3.298-0.969v4.267h4.116c-0.06,0.727-0.09,1.726-0.09,2.936h-4.026v8.171   c0,1.604,0.576,2.028,1.695,2.028c0.847,0,1.815-0.363,2.512-0.787L366.32,35.094z"/>
	<path fill="#FFFFFF" d="M374.37,33.884c-0.514-1.241-0.938-2.392-1.482-3.723l-1.968-4.297c-0.848-1.998-1.906-4.388-2.692-5.84   c0.151,0,3.843-0.395,3.994-0.395l3.995,10.32l1.693-4.388c0.788-1.998,1.484-3.995,2.089-5.75c1.393,0,2.784-0.03,3.904-0.122   l-7.385,17.553c-0.453,1.211-1.482,3.601-2.027,5.234c-1.361,0-2.815,0.062-3.964,0.184L374.37,33.884z"/>
</g>
<g opacity="0.8">
	<path fill="#FFFFFF" d="M82.13,58.809c0-5.885,4.001-10.575,9.832-10.575c5.565,0,9.328,4.427,9.328,9.594   c0,5.882-4.001,10.573-9.858,10.573C85.893,68.4,82.13,63.977,82.13,58.809z M98.693,58.277c0-4.822-2.942-7.896-6.917-7.896   c-4.213,0-7.075,3.658-7.075,7.977c0,4.822,2.967,7.896,6.942,7.896C95.831,66.254,98.693,62.598,98.693,58.277z"/>
	<path fill="#FFFFFF" d="M119.786,50.777c-1.59-0.025-3.26-0.051-5.194-0.051c-0.822,0-1.829,0-2.624,0.025   c-0.027,0.555-0.027,1.377-0.027,1.803v4.451l6.572-0.025c-0.053,0.608-0.079,1.43-0.079,2.172l-6.493-0.053v4.877   c0,1.059,0,3.152,0.08,3.92h-2.783c0.133-1.298,0.186-4.796,0.186-6.57v-6.043c0-1.749-0.053-5.433-0.186-6.73   c1.59,0.079,3.445,0.132,5.354,0.132c1.908,0,3.763-0.053,5.38-0.132C119.865,49.295,119.812,49.957,119.786,50.777z"/>
	<path fill="#FFFFFF" d="M146.02,68.347c-0.424-1.033-4.77-10.6-5.936-13.144l-1.166,8.773c-0.159,1.086-0.397,3.125-0.424,3.92   h-2.57c0.318-1.484,0.821-4.717,1.06-6.545l0.875-6.227c0.265-1.803,0.663-5.248,0.769-6.705l0.663-0.187   c0.53,1.3,1.325,2.942,1.855,4.108l5.273,11.475l5.248-11.475c0.503-1.113,1.431-3.153,1.829-4.108h0.609   c0.159,1.431,0.663,5.222,0.875,6.812l0.848,6.28c0.265,1.774,0.822,5.14,1.112,6.57l-2.649,0.213   c-0.054-0.82-0.266-2.995-0.478-4.16l-1.139-8.799c-1.034,2.227-5.592,11.979-6.016,13.012L146.02,68.347z"/>
	<path fill="#FFFFFF" d="M175.701,62.252h-8.188l-0.186,0.451c-0.742,1.696-1.537,3.684-2.121,5.193h-2.782l6.414-13.938   c1.086-2.359,1.801-3.977,2.384-5.539l0.689-0.187l6.545,14.179c0.795,1.775,1.829,3.975,2.624,5.484l-2.783,0.213L175.701,62.252z    M171.593,53.03l-3.153,7.155h6.307L171.593,53.03z"/>
	<path fill="#FFFFFF" d="M190.275,53.666v10.311c0,1.059,0.026,3.152,0.106,3.92h-2.808c0.159-1.298,0.291-4.796,0.317-6.57   l0.079-6.52c0.026-1.75,0-5.061-0.106-6.387l0.689-0.187l12.72,14.92v-7.87c0-1.749-0.027-5.273-0.186-6.572   c0.981,0,1.961-0.026,2.836-0.133c-0.106,0.797-0.186,2.968-0.212,4.029l-0.16,11.5c-0.026,1.06-0.026,3.312,0.055,4.082   l-0.689,0.186L190.275,53.666z"/>
	<path fill="#FFFFFF" d="M223.72,62.252h-8.189l-0.186,0.451c-0.742,1.696-1.537,3.684-2.12,5.193h-2.783l6.414-13.938   c1.086-2.359,1.802-3.977,2.384-5.539l0.689-0.187l6.547,14.179c0.793,1.775,1.827,3.975,2.622,5.484l-2.782,0.213L223.72,62.252z    M219.611,53.03l-3.154,7.155h6.308L219.611,53.03z"/>
	<path fill="#FFFFFF" d="M243.912,68.375c-5.617,0-9.859-4.348-9.859-9.806c0-5.751,4.4-10.336,10.364-10.336   c2.066,0,4.531,0.743,6.015,1.724l-0.716,2.306c-1.379-1.087-3.684-1.724-5.565-1.724c-4.505,0-7.525,3.312-7.525,7.818   c0,4.876,3.419,7.764,7.579,7.764c1.616,0,2.861-0.316,4.001-0.954v-3.55c0-0.398,0-1.165-0.054-1.644   c-0.9-0.026-0.662-0.026-1.562-0.026c-1.378,0-2.172,0.026-3.737,0.053c0.055-0.848,0.055-1.67,0-2.305   c1.67,0.052,2.493,0.079,3.737,0.079c1.856,0,2.677-0.027,4.266-0.106c-0.132,1.087-0.186,4.797-0.186,6.52v2.199   C249.16,67.394,247.199,68.375,243.912,68.375z"/>
	<path fill="#FFFFFF" d="M270.253,68.002c-1.643-0.105-3.629-0.131-5.564-0.131c-1.935,0-3.948,0.025-5.539,0.131   c0.133-1.297,0.187-4.901,0.187-6.676v-6.043c0-1.749-0.054-5.433-0.187-6.73c1.591,0.079,3.445,0.132,5.354,0.132   s3.763-0.053,5.405-0.132c-0.132,0.742-0.185,1.404-0.21,2.225c-1.592-0.025-3.262-0.051-5.195-0.051c-0.821,0-1.829,0-2.623,0.025   c-0.027,0.555-0.027,1.377-0.027,1.803v4.186l6.784-0.052c-0.053,0.636-0.079,1.483-0.079,2.226l-6.705-0.053v5.115   c0,0.423,0,1.244,0.027,1.801c0.848,0,1.775,0.027,2.623,0.027c2.2,0,4.081-0.027,5.937-0.08   C270.333,66.466,270.28,67.183,270.253,68.002z"/>
	<path fill="#FFFFFF" d="M286.685,68.347c-0.425-1.033-4.771-10.6-5.937-13.144l-1.167,8.773c-0.158,1.086-0.396,3.125-0.423,3.92   h-2.571c0.317-1.484,0.822-4.717,1.061-6.545l0.874-6.227c0.266-1.803,0.663-5.248,0.769-6.705l0.663-0.187   c0.529,1.3,1.324,2.942,1.854,4.108l5.272,11.475l5.249-11.475c0.503-1.113,1.432-3.153,1.828-4.108h0.608   c0.16,1.431,0.664,5.222,0.875,6.812l0.849,6.28c0.266,1.774,0.82,5.14,1.113,6.57l-2.651,0.213   c-0.053-0.82-0.264-2.995-0.476-4.16l-1.141-8.799c-1.033,2.227-5.591,11.979-6.015,13.012L286.685,68.347z"/>
	<path fill="#FFFFFF" d="M316.708,68.002c-1.644-0.105-3.63-0.131-5.564-0.131s-3.949,0.025-5.54,0.131   c0.133-1.297,0.188-4.901,0.188-6.676v-6.043c0-1.749-0.055-5.433-0.188-6.73c1.591,0.079,3.446,0.132,5.354,0.132   c1.908,0,3.765-0.053,5.407-0.132c-0.133,0.742-0.187,1.404-0.212,2.225c-1.591-0.025-3.261-0.051-5.195-0.051   c-0.821,0-1.828,0-2.622,0.025c-0.027,0.555-0.027,1.377-0.027,1.803v4.186l6.784-0.052c-0.053,0.636-0.08,1.483-0.08,2.226   l-6.704-0.053v5.115c0,0.423,0,1.244,0.027,1.801c0.847,0,1.774,0.027,2.622,0.027c2.2,0,4.082-0.027,5.937-0.08   C316.787,66.466,316.735,67.183,316.708,68.002z"/>
	<path fill="#FFFFFF" d="M326.698,53.666v10.311c0,1.059,0.026,3.152,0.107,3.92h-2.811c0.159-1.298,0.292-4.796,0.317-6.57   l0.081-6.52c0.026-1.75,0-5.061-0.106-6.387l0.689-0.187l12.72,14.92v-7.87c0-1.749-0.026-5.273-0.186-6.572   c0.98,0,1.961-0.026,2.835-0.133c-0.104,0.797-0.185,2.968-0.211,4.029l-0.159,11.5c-0.026,1.06-0.026,3.312,0.052,4.082   l-0.688,0.186L326.698,53.666z"/>
	<path fill="#FFFFFF" d="M363.03,50.832c-2.094-0.028-3.976-0.055-6.439-0.055c-0.026,0.636-0.026,1.405-0.026,1.908v11.291   c0,1.031,0.026,3.152,0.08,3.92h-2.783c0.133-1.298,0.186-4.796,0.186-6.57v-5.938c0-1.192,0-3.1-0.053-4.611   c-2.465,0-4.479,0.026-6.519,0.055c0.078-0.636,0.105-1.484,0.105-2.279c2.412,0.079,4.823,0.132,7.738,0.132   s5.433-0.053,7.924-0.132C363.11,49.295,363.056,50.01,363.03,50.832z"/>
</g>
<path fill="#FFFFFF" d="M14.795,30.542c-0.439-0.953-0.876-1.906-1.229-2.671c-0.763-0.459-1.347-0.817-1.988-1.2  c-2.005,0.354-3.852-0.168-5.512-1.474c0.713-1.108,2.046-1.608,4.209-1.631c-0.427-0.635-0.92-1.247-1.259-1.928  c-0.36-0.705-0.437-1.5-0.331-2.365c1.328,0.195,2.44,0.766,3.607,1.604c-0.598-1.977-0.289-3.643,1.037-5.213  c1.833,1.958,2.619,4.18,2.303,6.791c1,0.921,1.383,2.003,1.023,3.319c-0.053,0.173,0.021,0.413,0.117,0.585  c0.537,1.001,1.1,1.99,1.655,2.984c0.066-0.029,0.137-0.065,0.207-0.1c-0.104-0.235-0.17-0.5-0.317-0.702  c-1.31-1.736-1.067-3.965-0.052-5.552c0.052-0.077,0.11-0.146,0.266-0.334c0.405,0.565,0.835,1.051,1.141,1.611  c0.949,1.719,1.141,3.459,0.044,5.228c-0.485,0.777-0.206,1.494,0.795,2.197c0.508-2.583,0.556-5.162,0.39-7.779  c-3.536-2.626-6.092-5.842-6.053-10.677c1.535,0.513,2.73,1.329,3.617,2.598c0.919,1.317,0.953,2.766,0.678,4.36  c0.455,0.357,0.941,0.75,1.427,1.14c0.044-0.024,0.097-0.058,0.141-0.084c-0.155-0.986-0.302-1.975-0.464-2.961  c-0.163-0.971-0.338-1.936-0.525-3.028c1.504,0.84,2.405,2.069,3.237,3.363c0.886,1.381,1.048,2.86,0.569,4.471  c0.37,0.196,0.726,0.379,1.179,0.612c0.913-1.958,1.166-3.891,0.433-5.942c-1.073-0.287-1.832-0.932-2.236-2.01  c-2.528-0.221-4.474-1.405-5.909-3.653c2.057-0.602,3.926-0.265,5.895,0.487c-0.59-1.59-0.858-3.124-0.313-4.798  c1.627,0.75,2.752,1.877,3.304,3.588c0.375-1.976,1.49-3.378,3.108-4.448c0.736,1.678,1.031,4.592-0.843,6.582  c0.512,1.068,0.41,2.126-0.219,3.157c1.354,2.671,1.303,5.438,0.553,8.296c0.389,0.281,0.769,0.541,1.235,0.874  c0.525-1.333,1.699-2.352,1.325-3.922c-0.074-0.328-0.248-0.666-0.458-0.936c-1.192-1.501-1.965-3.149-1.888-5.113  c0.044-1.141,0.35-2.212,1.013-3.164c1.861,1.402,3.111,3.914,2.175,6.526c-0.249,0.695-0.483,1.383-0.204,2.138  c0.534-0.614,1.167-4.504,1.056-6.501c-1.239-1.212-1.884-2.709-1.622-4.494c0.246-1.718,1.073-3.131,2.424-4.33  c0.496,1.001,0.735,2.016,0.9,3.046c0.552,3.469,0.191,6.887-0.504,10.294c-0.525,2.6-1.287,5.127-2.285,7.59  c-0.077,0.188-0.136,0.378-0.188,0.523c0.617,0.798,1.195,1.548,1.777,2.299c0.038-0.011,0.081-0.018,0.122-0.022  c-0.084-0.365-0.118-0.743-0.25-1.081c-0.84-2.116-0.5-4.125,0.536-6.072c0.07-0.125,0.166-0.235,0.288-0.409  c0.673,0.887,0.956,1.862,1.17,2.866c0.302,1.443-0.078,2.768-0.633,4.058c-0.492,1.14-0.532,2.215-0.085,3.418  c0.516,1.378,0.788,2.848,1.171,4.301c0.069-0.381,0.117-0.791,0.221-1.181c0.316-1.231,0.622-2.468,1.001-3.686  c0.242-0.775,0.217-1.505-0.058-2.252c-0.307-0.842-0.68-1.678-0.888-2.549c-0.423-1.814,0.087-3.475,1.085-5.19  c0.306,0.557,0.604,0.989,0.784,1.463c0.67,1.74,0.843,3.494,0.114,5.272c-0.121,0.298-0.139,0.637-0.085,0.997  c0.575-0.76,1.146-1.525,1.712-2.277c-0.53-1.492-1.13-2.951-1.583-4.455c-1.139-3.79-1.972-7.639-1.854-11.635  c0.051-1.638,0.212-3.26,0.772-4.812c0.081-0.229,0.183-0.446,0.28-0.671c2.902,1.789,3.38,6.207,0.963,8.894  c-0.003,2.182,0.404,4.34,1.084,6.453c0.299-0.577,0.2-1.152-0.032-1.711c-0.458-1.126-0.611-2.285-0.361-3.481  c0.302-1.434,1.177-2.516,2.214-3.565c0.626,0.677,0.862,1.458,1.042,2.259c0.471,2.113-0.088,4.027-1.388,5.66  c-0.975,1.232-1.051,2.369-0.279,3.661c0.316,0.525,0.595,1.074,0.927,1.673c0.417-0.305,0.79-0.569,1.185-0.861  c-0.733-2.84-0.884-5.628,0.44-8.347c-0.65-1.008-0.743-2.067-0.258-3.188c-1.882-1.946-1.591-4.228-1.066-6.67  c1.741,1.094,2.878,2.491,3.26,4.39c0.431-0.678,0.789-1.435,1.328-2.025c0.527-0.577,1.236-0.985,1.972-1.548  c0.559,1.751,0.409,3.278-0.214,4.913c1.94-0.69,3.817-1.061,5.899-0.447c-1.364,2.282-3.312,3.425-5.846,3.705  c-0.388,1.038-1.126,1.708-2.215,1.986c-0.773,2.053-0.43,3.99,0.486,5.957c0.392-0.198,0.754-0.378,1.129-0.565  c-0.983-3.662,1.202-5.821,3.532-7.911c0.062,0.02,0.127,0.042,0.194,0.062c-0.291,1.957-0.586,3.918-0.872,5.879  c0.047,0.04,0.1,0.078,0.146,0.109c0.453-0.359,0.909-0.711,1.359-1.069c-0.282-1.736-0.252-3.35,0.872-4.776  c0.872-1.101,2.03-1.725,3.297-2.263c0.433,3.102-0.965,7.116-5.752,10.721c-0.312,1.575-0.027,6.479,0.453,7.772  c0.867-0.431,1.21-1.359,0.729-2.126c-1.27-2.006-0.928-3.923,0.286-5.799c0.228-0.35,0.497-0.673,0.802-1.079  c0.847,1.049,1.137,2.164,1.174,3.371c0.041,1.217-0.629,2.186-1.199,3.189c0.074,0.033,0.143,0.066,0.216,0.102  c0.615-1.081,1.226-2.151,1.826-3.207c-0.461-1.414-0.277-2.627,0.882-3.632c-0.328-2.589,0.338-4.879,2.23-6.865  c1.329,1.538,1.726,3.167,1.214,5.044c0.603-0.32,1.122-0.633,1.678-0.875c0.556-0.248,1.145-0.424,1.813-0.663  c0.219,1.792-0.312,3.18-1.626,4.464c1.822-0.225,3.222,0.29,4.423,1.571c-1.7,1.398-3.546,1.924-5.555,1.599  c-0.655,0.394-1.254,0.762-1.968,1.189c-0.34,0.761-0.73,1.645-1.127,2.531c1.119-0.999,2.182-2.017,3.661-2.41  c1.435-0.383,2.87-0.353,4.356-0.069c-0.548,1.761-1.725,2.848-3.208,3.686c-1.127,0.633-2.285,0.751-3.525,0.431  c-1.317-0.343-2.178,0.115-2.768,1.358c-0.209,0.449-0.456,0.887-0.765,1.479c0.907-0.036,1.67-0.015,2.418-0.117  c0.979-0.137,1.95-0.344,2.914-0.571c0.57-0.137,1-0.505,1.216-1.075c0.769-2.021,2.713-2.454,4.514-1.82  c0.922,0.319,1.764,0.802,2.385,1.728c-4.912,1.777-9.849,2.978-15.122,2.575c1.343-2.663,2.657-5.257,3.989-7.898  c-0.453-0.224-0.756-0.375-1.115-0.556c-1.229,2.523-2.866,4.706-4.738,6.72c-0.062,0.058-0.147,0.102-0.341,0.243  c-0.845-3.191-1.038-6.358-0.942-9.568c-0.06-0.021-0.113-0.043-0.173-0.07c-0.099,0.188-0.279,0.377-0.279,0.571  c0.003,1.782,0.033,3.562,0.062,5.35c0.026,1.776,0.228,3.576-0.394,5.302c-1.332,3.708-3.867,6.085-7.745,6.935  c-0.185,0.04-0.375,0.04-0.559,0.043c-0.167,0.006-0.331-0.015-0.6-0.025c0-0.512,0.015-0.993,0-1.471  c-0.103-2.759,0.137-5.48,0.938-8.139c0.873-2.879,2.483-5.239,4.895-7.037c1.709-1.278,3.477-2.484,5.187-3.765  c0.622-0.465,1.159-1.034,1.67-1.649c-2.012,1.793-4.374,2.999-6.729,4.368c-1.337-2.358-1.714-4.728-1.042-7.296  c-0.221-0.088-0.418-0.169-0.687-0.28c-1.141,2.687-0.803,5.339-0.01,7.98c-0.815,0.666-1.59,1.307-2.418,1.988  c-1.23-1.922-2.329-3.87-3.01-6.035c-0.674-2.148-1.064-4.338-1.075-6.642c-0.171-0.036-0.319-0.062-0.562-0.105  c0.092,2.449,0.534,4.767,1.295,7.003c0.761,2.228,1.659,4.413,2.523,6.676c-2.726,2.994-3.506,6.835-3.988,10.804h-2.104  c-0.468-3.956-1.351-7.761-4.201-10.845c2.007-4.246,3.54-8.632,3.726-13.437H33.43c0.051,4.635-1.344,8.796-3.916,12.645  c-0.813-0.669-1.588-1.303-2.395-1.964c0.773-2.635,1.023-5.265-0.11-7.943c-0.238,0.091-0.456,0.176-0.709,0.28  c0.718,2.506,0.394,4.857-0.927,7.215c-0.754-0.405-1.473-0.781-2.235-1.193c-0.077,0.132-0.154,0.266-0.198,0.331  c1.28,1.016,2.521,1.971,3.737,2.958c1.848,1.486,2.915,3.498,3.684,5.684c1.1,3.116,1.243,6.354,1.12,9.622  c0,0.07-0.035,0.141-0.063,0.246c-1.085,0.076-2.09-0.184-3.039-0.645c-3.984-1.927-6.203-5.033-6.232-9.55  c-0.015-2.517,0.003-5.037,0-7.557c0-0.254,0.065-0.606-0.475-0.571c0.137,3.278-0.041,6.539-0.818,9.872  c-2.174-2.075-3.804-4.404-5.154-6.99c-0.339,0.159-0.654,0.306-1.045,0.494c1.178,2.688,2.492,5.283,4.103,7.901  c-5.552,0.438-10.636-1.088-15.725-2.59c-0.015-0.07-0.033-0.143-0.049-0.216c0.559-0.31,1.098-0.681,1.686-0.923  c1.111-0.45,2.241-0.883,3.481-0.592c1.088,0.253,1.779,0.934,2.287,1.909c0.207,0.405,0.583,0.861,0.987,0.999  c1.743,0.62,3.58,0.711,5.57,0.704c-0.494-0.878-0.735-1.788-1.413-2.417c-0.653-0.617-1.479-0.632-2.324-0.401  c-1.15,0.313-2.208,0.093-3.253-0.46c-1.203-0.636-2.233-1.445-2.915-2.641c-0.154-0.273-0.271-0.562-0.434-0.909  c2.87-0.475,5.419-0.169,7.464,2.027c0.191,0.204,0.453,0.338,0.68,0.501c-0.019,0.008-0.035,0.015-0.048,0.03  C14.765,30.557,14.781,30.549,14.795,30.542 M62.955,32.199c-0.397-0.109-0.652,0.06-0.821,0.41h-0.026  c-0.025,0.021-0.007,0.004,0.014-0.015c0.273-0.136,0.548-0.271,0.822-0.413c0.02-0.035,0.037-0.072,0.011-0.024  C62.951,32.111,62.955,32.157,62.955,32.199 M27.503,31.955l0.029-0.02l-0.038,0.015c-0.036-0.151-0.04-0.319-0.114-0.448  c-0.603-1.016-1.429-1.821-2.389-2.5c-0.092-0.059-0.212-0.089-0.339-0.138c0.009,1.978,1.326,3.848,2.743,3.999  c-0.633-0.611-1.17-1.118-1.733-1.66c0.185-0.162,0.343-0.308,0.538-0.481C26.662,31.16,27.078,31.553,27.503,31.955 M53.15,19.684  c1.114-1.597,1.817-3.337,1.886-5.332c-1.758,0.733-3.145,2.841-2.611,4.394c0.279-0.743,0.548-1.455,0.838-2.23  c0.277,0.106,0.504,0.194,0.762,0.294c-0.114,0.322-0.225,0.585-0.303,0.854c-0.19,0.669-0.367,1.347-0.55,2.016l-0.016-0.028  L53.15,19.684z M23.013,25.303c-0.055,0.175-0.092,0.227-0.088,0.278c0.054,2.268,0,4.548,0.195,6.804  c0.271,3.098,1.721,5.627,4.201,7.528c0.867,0.662,1.868,1.062,3.142,1.206c-0.135-0.468-0.188-0.858-0.357-1.177  c-0.315-0.612-0.927-0.821-1.538-1.048c-0.693-0.259-1.423-0.508-2.02-0.921c-1.288-0.905-1.931-2.266-2.336-3.744  c-0.103-0.378-0.1-0.788-0.152-1.24c3.099,0.696,5.064,2.513,6.068,5.423c0.073-0.107,0.093-0.139,0.087-0.177  c-0.087-0.802-0.18-1.6-0.271-2.406c-0.135-1.137-0.757-1.8-1.88-1.991c-1.788-0.306-3.141-1.158-3.782-2.951  c-0.372-1.041-0.611-2.105-0.467-3.425c0.753,0.44,1.441,0.738,2.008,1.195c1.284,1.023,2.185,2.358,2.862,3.845  c0.115,0.25,0.291,0.474,0.438,0.709c0.054-0.037,0.11-0.077,0.161-0.122C28.341,29.615,25.67,27.523,23.013,25.303 M40.834,38.209  c0.071,0.03,0.141,0.063,0.214,0.088c0.924-2.933,2.924-4.644,5.865-5.346c0.03,0.096,0.074,0.165,0.07,0.231  c-0.07,1.958-1.439,4.913-3.932,5.582c-0.52,0.145-1.046,0.331-1.502,0.6c-0.614,0.353-0.854,0.95-0.791,1.641  c0.076,0.044,0.11,0.077,0.144,0.074c0.113-0.005,0.228-0.005,0.334-0.03c1.479-0.382,2.778-1.058,3.819-2.226  c1.943-2.167,2.926-4.691,2.981-7.585c0.036-1.892,0-3.791-0.009-5.688c0-0.06-0.051-0.119-0.117-0.271  c-2.645,2.19-5.258,4.31-6.112,7.823c0.218-0.166,0.382-0.372,0.493-0.607c0.729-1.543,1.634-2.961,2.989-4.036  c0.551-0.438,1.169-0.762,2.041-0.967c-0.118,0.941-0.144,1.75-0.334,2.517c-0.339,1.383-0.919,2.652-2.329,3.267  c-0.581,0.25-1.204,0.404-1.821,0.548c-0.75,0.177-1.383,0.57-1.563,1.295C41.026,36.123,40.971,37.18,40.834,38.209 M13.877,23.042  c-0.956,0.015-1.748,0.837-1.726,1.792c0.027,0.935,0.866,1.714,1.819,1.697c0.941-0.015,1.696-0.807,1.684-1.755  C15.647,23.82,14.839,23.037,13.877,23.042 M25.692,16.604c0.945-0.002,1.678-0.773,1.67-1.751  c-0.007-0.957-0.828-1.758-1.777-1.748c-0.935,0.014-1.671,0.793-1.659,1.776C23.937,15.862,24.702,16.607,25.692,16.604   M46.857,14.78c-0.003-0.998-0.754-1.782-1.714-1.789c-0.934-0.002-1.721,0.78-1.714,1.711c0.008,0.974,0.8,1.772,1.741,1.762  C46.083,16.449,46.862,15.674,46.857,14.78 M57.058,26.406c0.959-0.008,1.743-0.767,1.754-1.685c0.015-0.954-0.78-1.726-1.762-1.726  c-0.917,0-1.704,0.761-1.704,1.656C55.346,25.655,56.085,26.413,57.058,26.406 M33.786,13.558c0.152-2.031-0.004-4.025-0.533-6.049  c-1.652,1.723-1.752,5.708-0.199,6.306c-0.123-1.129-0.251-2.251-0.376-3.414h0.776C33.568,11.465,33.679,12.509,33.786,13.558   M37.705,13.7c1.527-1.305,1.28-5.153-0.324-6.246c-0.464,1.935-0.6,3.878-0.45,5.852c0.101-1.036,0.2-2.066,0.304-3.158  c0.293,0.043,0.521,0.083,0.803,0.127C37.929,11.413,37.822,12.509,37.705,13.7 M13.36,31.182c-1.127-0.413-2.149-0.789-3.218-1.173  c0.118-0.298,0.199-0.501,0.303-0.776c0.76,0.269,1.475,0.515,2.185,0.761c-1.17-1.176-3.561-1.784-4.627-1.244  C9.022,30.343,11.46,31.987,13.36,31.182 M14.859,21.999c0.338-1.354-0.469-4.078-1.494-4.978c-0.044,0.032-0.102,0.059-0.12,0.098  c-0.755,1.528-0.615,3.047,0.073,4.547c0.056,0.122,0.262,0.176,0.522,0.34c-0.092-0.894-0.166-1.628-0.246-2.392  c0.224-0.026,0.382-0.044,0.625-0.069c0.059,0.477,0.125,0.912,0.159,1.352C14.452,21.905,14.448,21.905,14.859,21.999   M15.707,14.416c0.191,2.08,0.861,3.877,2.178,5.434c-0.353-0.969-0.7-1.935-1.062-2.948c0.293-0.087,0.496-0.15,0.724-0.211  c0.316,0.792,0.604,1.534,0.897,2.277C18.737,17.001,17.656,15.375,15.707,14.416 M56.145,21.851c0.55-0.717,0.193-1.67,0.592-2.468  c0.191,0.026,0.365,0.05,0.599,0.084c-0.062,0.794-0.122,1.537-0.185,2.34c1.105-0.56,1.259-3.609,0.291-4.925  C56.299,18.374,55.971,20.038,56.145,21.851 M20.831,17.249c0.292,2.199,0.578,4.341,0.858,6.489c0.022,0,0.044,0,0.065,0.004  v-3.635h0.751v3.124C23.665,21.736,22.932,19.286,20.831,17.249 M27.266,35.661c0.479,0.638,0.921,1.235,1.365,1.838  c0.053-0.055,0.097-0.103,0.147-0.151c-0.533-1.417-2.586-3.194-3.766-3.271c0.312,1.775,1.759,3.896,3.255,3.863  c-0.606-0.587-1.151-1.114-1.723-1.663C26.725,36.123,26.88,35.99,27.266,35.661 M58.875,29.7c0.553-0.204,1.107-0.402,1.726-0.627  c0.125,0.345,0.232,0.614,0.354,0.946c-1.053,0.386-2.006,0.737-2.966,1.089c1.744,0.417,4.18-0.843,4.934-2.495  C61.409,28.404,60.068,28.742,58.875,29.7 M42.925,37.978c1.641-0.122,3.061-2.723,3.072-4.003  c-1.721,0.599-2.852,1.813-3.676,3.377c0.549-0.512,1.093-1.027,1.723-1.619c0.221,0.205,0.385,0.359,0.629,0.584  C44.022,36.936,43.484,37.444,42.925,37.978 M29.981,14c-0.794,1.35-0.622,3.999,0.347,4.908c-0.152-0.913-0.295-1.775-0.44-2.671  c0.28-0.045,0.494-0.081,0.744-0.125c0.167,0.909,0.316,1.758,0.49,2.7C31.751,17.418,31.162,15.053,29.981,14 M39.695,18.598  c0.154-0.908,0.297-1.761,0.444-2.652c0.313,0.048,0.52,0.078,0.785,0.117c-0.144,0.912-0.271,1.751-0.416,2.654  c0.93-0.861,1.074-3.797,0.238-4.821C39.629,14.897,39.043,17.4,39.695,18.598 M48.069,22.491c0.065-0.022,0.191-0.041,0.191-0.07  c0.071-0.805,0.13-1.607,0.191-2.446h0.651c0.028,0.595,0.059,1.172,0.088,1.75c0.058,0.004,0.12,0.004,0.183,0.011  c0.21-1.494,0.42-2.986,0.648-4.632C48.216,18.993,47.366,20.971,48.069,22.491 M27.418,12.792c1.18-0.566,1.759-3.251,1.133-4.549  c-0.986,0.496-2.281,3.255-1.788,3.947c0.268-0.659,0.526-1.292,0.802-1.964c0.261,0.121,0.455,0.209,0.683,0.312  C27.979,11.277,27.724,11.964,27.418,12.792 M18.51,12.513c0.6,1.164,3.044,2.454,4.271,2.197c-0.581-0.621-1.527-0.497-2.247-0.945  c0.073-0.228,0.147-0.449,0.227-0.688c0.773,0.208,1.488,0.394,2.209,0.586c0.009-0.056,0.021-0.11,0.036-0.167  C21.644,12.694,20.144,12.536,18.51,12.513 M43.953,11.924c0.256-1.295-1.064-3.491-1.848-3.8c-0.428,1.412-0.009,4.09,1.158,4.414  c-0.287-0.758-0.551-1.456-0.834-2.204c0.28-0.09,0.492-0.164,0.746-0.25C43.451,10.741,43.701,11.333,43.953,11.924 M4.698,32.746  c1.502,0.397,2.958,0.787,4.416,1.173c0.011-0.029,0.022-0.067,0.036-0.099c-0.577-0.295-1.151-0.59-1.787-0.917  c0.162-0.257,0.291-0.464,0.45-0.707c0.543,0.287,1.051,0.556,1.661,0.884C8.702,31.656,6.431,31.449,4.698,32.746 M46.303,28.826  c-0.993,0.38-2.698,2.241-2.782,3.04c0.048,0.048,0.098,0.099,0.15,0.155c0.34-0.475,0.679-0.951,1.046-1.464  c0.305,0.291,0.47,0.448,0.679,0.652c-0.562,0.54-1.085,1.039-1.648,1.577C45.136,32.66,46.545,30.402,46.303,28.826 M50.276,13.7  c-0.684,0.199-1.299,0.365-1.906,0.542c-0.249,0.07-0.479,0.168-0.22,0.515c1.593-0.298,2.992-0.923,4.08-2.346  c-1.645-0.038-3.086,0.182-4.408,0.922c0.015,0.057,0.025,0.107,0.037,0.155c0.717-0.196,1.434-0.391,2.173-0.596  C50.125,13.194,50.185,13.403,50.276,13.7 M9.002,25.55v-0.719c0.677-0.056,1.333-0.102,2.039-0.159  c-0.765-0.739-3.22-0.493-3.701,0.423c1.207,0.839,3.141,1.204,4.007,0.651C10.57,25.247,9.786,25.682,9.002,25.55 M63.673,24.979  c-1.095-0.928-2.702-1.097-3.618-0.432c0.681,0.048,1.31,0.092,1.979,0.144c-0.017,0.313-0.032,0.541-0.039,0.779  c-0.441,0-0.814,0.008-1.182-0.002c-0.822-0.022-0.822-0.026-0.979,0.334C61.244,26.149,62.41,25.588,63.673,24.979 M10.831,21.2  c0.306,0.276,0.542,0.515,0.806,0.718c0.235,0.171,0.5,0.305,0.755,0.458c0.033-0.061,0.069-0.124,0.102-0.184  c-0.79-0.918-1.762-1.56-2.962-1.926c0.039,1.42,0.788,2.552,1.937,2.976c0.051-0.085,0.11-0.174,0.19-0.288  c-0.447-0.387-0.879-0.756-1.346-1.161C10.497,21.583,10.641,21.421,10.831,21.2 M24.208,10.538  c0.259,0.544,0.494,1.043,0.784,1.655c0.332-0.935-0.743-2.634-1.868-3.146c-0.173,1.262,0.144,2.391,0.6,3.495  c0.099-0.01,0.196-0.024,0.294-0.037c0.103-0.598-0.412-1.125-0.39-1.75C23.805,10.689,23.984,10.623,24.208,10.538 M45.729,12.014  c0.178-0.373,0.291-0.626,0.413-0.873c0.128-0.269,0.265-0.532,0.412-0.812c0.261,0.135,0.422,0.22,0.618,0.319  c-0.097,0.308-0.192,0.585-0.27,0.869c-0.074,0.271-0.125,0.549-0.188,0.82c0.745-0.552,1.108-2.595,0.762-3.393  C46.436,9.489,45.467,11.042,45.729,12.014 M60.648,21.661c-0.287,0.275-0.504,0.507-0.743,0.705  c-0.504,0.431-0.506,0.429-0.357,0.703c1.1-0.411,1.966-1.829,1.744-2.862c-1.213,0.339-2.554,1.317-2.74,2.139  c0.583-0.483,1.066-0.88,1.573-1.296C60.314,21.267,60.453,21.432,60.648,21.661 M33.959,23.569  c-0.571,0.904-0.776,2.55-0.434,3.792c0.033-0.692,0.059-1.235,0.087-1.847c0.251,0.027,0.435,0.044,0.652,0.07v2.078  C34.812,26.254,34.658,24.909,33.959,23.569 M66.053,32.682c-0.861-0.573-1.736-0.908-2.756-0.72  c0.169,0.375,0.302,0.668,0.438,0.956c-0.314,0.198-0.544,0.343-0.771,0.486c0.014,0.029,0.032,0.054,0.049,0.083  C64.026,33.216,65.038,32.951,66.053,32.682 M36.652,27.538v-2.033h0.651c0.029,0.519,0.055,0.997,0.086,1.472  c0.319-1.205,0.101-2.338-0.41-3.464C36.189,24.551,36.098,26.722,36.652,27.538 M18.701,24.158c-0.647,1-0.673,2.454-0.044,3.198  c-0.032-0.558-0.058-1.032-0.087-1.562h0.731c0.055,0.754,0.107,1.462,0.166,2.175c0.044-0.012,0.088-0.019,0.139-0.026  C19.883,26.582,19.459,25.383,18.701,24.158 M52.278,24.132c-0.847,1.005-1.24,2.91-0.764,3.783  c0.043-0.788,0.075-1.506,0.107-2.231h0.749v1.479C52.958,26.138,52.801,25.151,52.278,24.132 M20.784,22.807  c-0.014-0.506-1.832-2.115-2.424-2.104C19.143,21.38,19.919,22.06,20.784,22.807"/>
<path fill="#FFFFFF" d="M39.277,48.194c1.183-0.75,2.32-1.436,3.42-2.175c2.354-1.563,4.253-3.598,5.928-5.857  c0.668-0.901,1.379-1.773,2.148-2.586c0.845-0.9,2.038-1.063,3.183-1.252c2.642-0.438,5.287-0.856,7.936-1.232  c2.036-0.295,3.992,0.021,5.829,0.975c0.162,0.081,0.305,0.194,0.496,0.323c-0.6,0.726-1.408,0.982-2.17,1.311  c-1.207,0.507-2.443,0.727-3.702,0.173c-0.338-0.151-0.688-0.328-0.956-0.575c-0.77-0.703-1.651-1.004-2.682-0.882  c-0.666,0.081-1.335,0.151-2.01,0.317c2.154,0.786,4.305,1.567,6.462,2.347l0.012,0.243c-0.366,0.202-0.71,0.437-1.09,0.597  c-1.607,0.673-3.263,0.974-4.894,0.194c-0.577-0.281-1.209-0.769-1.468-1.32c-0.907-1.976-2.63-1.759-3.892-0.531  c-1.084,1.063-2.009,2.315-2.917,3.543c-1.439,1.936-3.147,3.574-5.078,4.982c-0.973,0.705-1.954,1.388-2.984,2.116  c0.433,1.183,0.136,2.354-0.235,3.528c-0.106,0.354-0.081,0.805,0.042,1.155c0.624,1.831,0.808,3.696,0.665,5.61  c-0.004,0.087,0.029,0.181,0.054,0.312c1.439,0.125,2.815,0.48,4.048,1.221c1.229,0.74,2.274,1.709,3.017,2.749  c1.629,0.346,1.892,0.318,2.664,0.617c0.071,0.041,0.284,0.108,0.644,0.3c1.869,0.978,2.863,1.102,4.444,0.893  c0.125-0.019,0.253-0.019,0.402-0.033c-0.681,1.111-1.907,1.586-3.353,1.214c-0.643-0.169-1.277-0.445-1.839-0.79  c-1.012-0.613-2.046-0.914-3.216-0.613c-0.067,0.016-0.146,0-0.229,0c-1.963-2.9-4.509-4.688-8.104-4.277  c0-1.15,0.07-2.25-0.018-3.344c-0.095-1.195-0.281-2.383-0.535-3.552c-0.194-0.903-0.296-1.761,0.085-2.636  C39.835,50.231,39.666,49.201,39.277,48.194 M66.612,36.568c-0.655-0.485-2.546-0.843-3.367-0.642  c0.231,0.071,0.475,0.141,0.767,0.222c-0.052,0.302-0.093,0.551-0.147,0.865c-0.671-0.117-1.288-0.228-1.993-0.35  C62.818,37.781,65.284,37.672,66.612,36.568 M61.543,39.256c-1.248-0.459-2.37-0.871-3.492-1.284  c-0.019,0.041-0.034,0.085-0.055,0.128c0.397,0.233,0.791,0.473,1.247,0.741c-0.139,0.253-0.257,0.467-0.393,0.721  c-0.869-0.478-1.672-0.918-2.569-1.413C56.851,39.688,59.479,40.35,61.543,39.256"/>
<path fill="#FFFFFF" d="M8.053,39.073c2.142-0.771,4.285-1.541,6.409-2.31c-1.252-0.673-3.486-0.501-4.554,0.393  c-1.126,0.935-2.391,1.214-3.79,0.852c-1.126-0.296-2.179-0.759-3.201-1.55c0.276-0.173,0.46-0.309,0.669-0.405  c1.719-0.798,3.511-1.155,5.411-0.876c2.777,0.406,5.554,0.843,8.335,1.195c2.12,0.274,3.595,1.432,4.754,3.14  c2.417,3.563,5.56,6.307,9.364,8.296c0.084,0.044,0.165,0.089,0.246,0.136c0.045,0.03,0.085,0.074,0.158,0.137  c-0.091,0.42-0.253,0.85-0.265,1.291c-0.011,0.553,0.004,1.143,0.195,1.646c0.321,0.878,0.471,1.716,0.17,2.63  c-0.707,2.176-0.626,4.4-0.381,6.641c0.013,0.104,0,0.218,0,0.398c-1.654-0.21-3.209,0.037-4.662,0.854  c-1.439,0.809-2.556,1.947-3.418,3.359c-0.23-0.023-0.432-0.023-0.635-0.059c-0.992-0.192-1.883,0.067-2.722,0.594  c-0.821,0.518-1.696,0.825-2.678,0.943c-1.16,0.133-1.883-0.478-2.705-1.313c0.512,0.048,0.887,0.079,1.262,0.118  c1.233,0.109,2.366-0.111,3.422-0.817c0.994-0.662,2.141-0.868,3.377-0.862c1.77-2.361,4.068-3.868,7.123-4.087  c0-0.728-0.063-1.422,0.016-2.104c0.135-1.169,0.323-2.337,0.569-3.484c0.14-0.636,0.243-1.222-0.007-1.866  c-0.394-1.015-0.538-2.068-0.172-3.104c-1.057-0.752-2.065-1.496-3.095-2.209c-2.377-1.651-4.25-3.773-5.913-6.118  c-0.592-0.835-1.314-1.589-2.053-2.299c-0.36-0.354-0.875-0.581-1.358-0.755c-0.926-0.349-1.753-0.066-2.188,0.825  c-0.936,1.91-2.554,2.406-4.452,2.153c-0.945-0.134-1.855-0.554-2.774-0.86c-0.163-0.058-0.296-0.196-0.445-0.299  C8.061,39.225,8.057,39.147,8.053,39.073 M13.344,38.076c-0.177,0-0.371-0.049-0.526,0.004c-0.905,0.305-1.798,0.628-2.694,0.956  c-0.158,0.059-0.3,0.159-0.489,0.27c2.056,1.028,4.673,0.449,5.24-1.189c-0.887,0.498-1.722,0.956-2.576,1.431  c-0.147-0.292-0.25-0.479-0.382-0.727c0.519-0.27,0.979-0.508,1.431-0.749L13.33,38.04L13.344,38.076z M8.411,35.931  c-1.186-0.271-3.238,0.114-4.015,0.641c1.678,1.254,4.195,1.169,4.924,0.047c-0.692,0.121-1.343,0.244-2.054,0.365  c-0.036-0.307-0.062-0.553-0.091-0.818C7.626,36.078,8.021,36.005,8.411,35.931"/>
<path fill="#FFFFFF" d="M39.541,66.232c0.167-1.11,0.319-2.182,0.478-3.234c2.248-0.375,4.955,1.146,5.909,3.311  c-1.324,1.575-1.59,3.35-0.729,5.341c-0.334,0.114-0.639,0.218-0.932,0.312c-0.89-1.276-0.808-3.132,0.2-5.497  c-0.379-1.192-2.071-2.316-3.447-2.242c-0.084,0.477-0.177,0.965-0.28,1.527c1.986,1.658,2.688,3.843,2.513,6.44  c-0.392,0.072-0.729,0.144-1.166,0.234C42.321,69.898,41.752,67.746,39.541,66.232"/>
<path fill="#FFFFFF" d="M29.345,72.124c-0.404-0.062-0.739-0.115-1.103-0.166c-0.141-1.243-0.034-2.397,0.377-3.528  c0.406-1.127,1.057-2.061,2.021-2.814c-0.1-0.531-0.195-1.041-0.287-1.527c-1.325-0.133-2.848,0.843-3.467,2.182  c1.005,1.704,1.221,3.484,0.406,5.429c-0.338-0.094-0.648-0.175-1.019-0.273c0.838-1.95,0.581-3.708-0.761-5.253  c0.596-1.99,3.495-3.654,5.797-3.309c0.162,1.027,0.327,2.074,0.493,3.154c-0.96,0.703-1.699,1.555-2.119,2.656  C29.271,69.758,29.223,70.895,29.345,72.124"/>
<path fill="#FFFFFF" d="M39.404,67.85c-1.763,1.18-2.715,2.836-2.77,4.999H35.86c-0.118-1.976,0.302-3.731,1.837-5.073  c-1.138-1.055-2.746-1.074-3.93-0.052c1.475,1.376,1.917,3.126,1.77,5.125c-0.247-0.014-0.462-0.026-0.736-0.045  c-0.069-2.151-0.96-3.84-2.724-5.036C33.734,65.397,37.591,65.193,39.404,67.85"/>
<path fill="#FFFFFF" d="M53.43,67.724c-0.748,0.629-1.429,1.03-2.314,0.651c-0.328-0.139-0.659-0.264-0.968-0.438  c-0.729-0.383-1.469-0.42-2.116,0.087c-0.688,0.541-0.909,1.3-0.669,2.167c0.048,0.182,0.092,0.361,0.147,0.604  c-0.301,0.127-0.599,0.251-0.893,0.371c-0.729-1.18-0.553-2.656,0.4-3.729c0.875-0.982,2.071-1.183,3.37-0.61  c0.695,0.301,1.412,0.559,2.13,0.801C52.756,67.709,53.032,67.688,53.43,67.724"/>
<path fill="#FFFFFF" d="M24.9,71.061c0.487-0.994,0.497-2.092,0.044-3.059c-0.644-1.375-2.02-1.959-3.459-1.482  c-0.452,0.148-0.864,0.436-1.317,0.581c-0.65,0.207-1.32,0.339-2.008,0.513c0.942,0.771,1.425,0.865,2.458,0.446  c0.345-0.14,0.673-0.329,1.018-0.462c0.979-0.375,1.964-0.025,2.312,0.958c0.213,0.606,0.151,1.556,0.209,2.22"/>
<path fill="#FFFFFF" d="M40.298,68.802c0.619,1.163,0.832,2.364,0.653,3.687c-0.296,0.047-0.561,0.096-0.822,0.141  c-0.104-0.784-0.196-1.528-0.305-2.39c-0.975,0.714-1.252,1.628-1.532,2.58h-0.997C37.303,71.196,38.835,69.122,40.298,68.802"/>
<path fill="#FFFFFF" d="M31.186,68.674c1.656,0.647,2.899,2.396,2.939,4.127c-0.313-0.025-0.618-0.054-0.979-0.084  c-0.257-0.938-0.552-1.869-1.504-2.616c-0.129,0.809-0.24,1.523-0.361,2.314c-0.203-0.019-0.464-0.038-0.772-0.066  C30.331,71.024,30.545,69.828,31.186,68.674"/>
<path fill="#FFFFFF" d="M9.046,39.327c0,0,1.768,1.043,2.296,0.766c0.53-0.276,2.749-0.229,2.944-0.766s1.295-1.588,1.295-1.588  l-1.12-0.53L9.046,39.327z"/>
<path fill="#FFFFFF" d="M9.812,36.619c0,0-2.189,1.225-2.749,1.178c-2.123-0.182-2.503-1.108-3.021-1.121  c-0.519-0.011,0.518-0.528,0.518-0.528s3.603-0.825,4.133-0.707C9.224,35.56,9.812,36.619,9.812,36.619z"/>
<path fill="#FFFFFF" d="M9.812,32.969c0,0-0.673-1.268-1.824-1.469c-1.341-0.234-3.386,0.583-3.658,1.175  c-0.271,0.594,4.187,1.59,4.716,1.59S9.812,32.969,9.812,32.969z"/>
<path fill="#FFFFFF" d="M13.875,31.148c0,0-1.119,0.703-1.561,0.585c-0.441-0.118-2.493-0.335-2.501-0.766  c-0.007-0.431-1.178-0.959-1.354-1.177c-0.176-0.216-1.236-1.119-0.883-1.296c0.354-0.177,2.649-0.294,3.355,0  c0.706,0.295,2.001,1.129,2.414,1.534C13.756,30.438,13.875,31.148,13.875,31.148z"/>
<path fill="#FFFFFF" d="M11.52,26.142c0,0-1.472,0.587-1.707,0.353c-0.237-0.235-2.612-0.765-2.749-1.119  c-0.135-0.353,0.258-1.349,0.688-1.125c0.43,0.224,2.457-0.64,2.936-0.287C11.166,24.315,11.52,26.142,11.52,26.142z"/>
<path fill="#FFFFFF" d="M11.049,23.879c0,0,1.235-1.388,2.06-1.33c0.825,0.06,1.531-0.357,1.825-0.003  c0.294,0.357,0.324-1.388,0.177-2.354c-0.088-0.585-0.813-1.999-0.882-2.587c-0.07-0.588-1.146-1.141-1.414-0.472  c-0.268,0.672-0.117,3.946,0.059,4.299c0.177,0.353-0.933-0.091-1.354-0.707c-0.42-0.614-1.531-0.441-2.001-0.663  c-0.472-0.22-0.582,1.362,0,1.722C10.1,22.145,11.049,23.879,11.049,23.879z"/>
<path fill="#FFFFFF" d="M19.173,28.731c0,0,0.823-0.413,0.823-1c0-0.59-0.294-1.973-0.411-2.517  c-0.118-0.544-0.766-1.545-0.943-1.604s-0.531,0.059-0.708,1.06c-0.175,1-0.412,2.119,0,2.413  C18.348,27.376,19.173,28.731,19.173,28.731z"/>
<path fill="#FFFFFF" d="M29.12,38.149c0,0,0.236-0.411,0-0.941c-0.235-0.532-1.096-1.2-1.176-1.777  c-0.082-0.578-1.755-0.758-1.766-1.167c-0.012-0.408-1.472-0.825-1.472-0.471c0,0.353,0.375,2.584,1,2.823  c0.627,0.234,1.296,1.355,1.826,1.533C28.062,38.327,29.12,38.149,29.12,38.149z"/>
<path fill="#FFFFFF" d="M28.062,32.863c0,0-0.176-1.947-0.589-2.472c-0.413-0.522-1.876-1.932-2.179-1.659  c-0.302,0.271-1.06-0.472-1,0c0.059,0.47,0.117,1.884,0.412,2.295c0.294,0.413,1.736,2.343,2.259,2.119  C27.487,32.922,28.062,32.863,28.062,32.863z"/>
<path fill="#FFFFFF" d="M18.348,20.019c0,0,0.654-1.942,0.503-2.354c-0.151-0.413-1.221-2.042-1.333-2.531  c-0.116-0.49-1.643-1.061-1.937-1.119c-0.295-0.059-0.354,2.23,0,2.814C17.708,20.353,18.348,20.019,18.348,20.019z"/>
<path fill="#FFFFFF" d="M21.671,24.275c0,0,1.622-0.724,1.562-1.077c-0.058-0.354,0.283-1.746,0.004-2.12  c-0.279-0.376-0.264-2.27-0.827-2.474c-0.564-0.202-1.354-1.555-1.591-1.777c-0.235-0.224-0.695,0.692-0.573,1.458  c0.122,0.764,0.986,3.617,0.986,4.03C21.233,22.726,21.671,24.275,21.671,24.275z"/>
<path fill="#FFFFFF" d="M23.348,14.838c0,0-0.173-0.942,0.238-1.295c0.414-0.354,1.297-1.236,1.649-1.119  c0.353,0.118,1.633-0.059,1.729,0.236c0.095,0.294,1.097,0.235,1.097,0.235s0.823-1.176,0.882-1.531  c0.059-0.353,0.323-1.413,0.279-1.765c-0.044-0.354-0.279-1.59-0.456-1.766C28.59,7.655,27.612,8.035,27.44,8.23  c-0.174,0.196-0.674,1.192-0.792,1.487c-0.119,0.294-0.471,1.596-0.471,1.596l-0.354,0.465c0,0-0.416-1.02-0.765-1.473  c-0.338-0.437-1.178-1.411-1.473-1.529c-0.294-0.119-0.646-0.236-0.765,0c-0.117,0.236-0.235,1.766,0,2.177  c0.236,0.412,0.526,1.589,0.526,1.589l-0.663,0.237c0,0-2.228-0.32-2.689-0.647c-0.46-0.328-1.885-0.118-2.002,0.117  c-0.117,0.235,0.38,1.24,0.88,1.237c0.5-0.005,1.324,1.696,1.829,1.353c0.504-0.341,2.237,0.047,2.237,0.047L23.348,14.838z"/>
<path fill="#FFFFFF" d="M33.654,14.011c0,0,0.824-0.408,0.648-0.88c-0.178-0.471-0.066-2.017-0.314-2.473  c-0.246-0.456,0.066-2.593-0.334-2.873c-0.401-0.276,0.169-0.815-0.412-0.835c-0.582-0.019-0.899,1.236-1.126,1.648  c-0.229,0.413-0.64,1.531-0.64,2.12c0,0.588,0.084,2.565,0.64,2.708c0.556,0.144,0.207,0.824,0.784,0.824  C33.478,14.25,33.654,14.011,33.654,14.011z"/>
<path fill="#FFFFFF" d="M30.828,19.312c0,0-0.041-0.432,0.647-0.883c0.688-0.448-0.117-0.975,0-1.637  c0.118-0.66-0.29-1.578-0.647-1.907c-0.356-0.33-0.412-1.106-0.766-1.224c-0.353-0.118-0.787,0.856-0.833,1.224  c-0.049,0.365,0.308,1.913-0.005,2.426c-0.312,0.51,0.369,1.293,0.722,1.587C30.298,19.195,30.828,19.312,30.828,19.312z"/>
<path fill="#FFFFFF" d="M34.006,28.316c0,0,0.961-0.546,1.016-0.773c0.055-0.221-0.419-1.457-0.433-1.692  c-0.016-0.234,0.23-0.667,0.124-0.945c-0.107-0.28-0.589-1.648-0.707-1.825c-0.117-0.177-0.529,0.18-0.647,0.799  c-0.118,0.612-0.625,1.308-0.46,2.288c0.165,0.974,0.578,2.149,0.578,2.149H34.006z"/>
<path fill="#FFFFFF" d="M62.002,39.383c0,0-1.765,1.042-2.295,0.764c-0.53-0.279-2.749-0.227-2.943-0.764  c-0.196-0.538-1.295-1.59-1.295-1.59l1.119-0.529L62.002,39.383z"/>
<path fill="#FFFFFF" d="M61.06,36.675c0,0,2.188,1.219,2.749,1.176c2.122-0.184,2.5-1.106,3.02-1.117  c0.519-0.016-0.519-0.531-0.519-0.531s-3.602-0.823-4.131-0.706C61.649,35.615,61.06,36.675,61.06,36.675z"/>
<path fill="#FFFFFF" d="M60.729,33.024c0,0,0.673-1.272,1.825-1.472c1.34-0.234,3.385,0.586,3.657,1.177  c0.273,0.588-4.187,1.589-4.717,1.589C60.965,34.319,60.729,33.024,60.729,33.024z"/>
<path fill="#FFFFFF" d="M56.667,31.2c0,0,1.118,0.706,1.56,0.589c0.442-0.119,2.495-0.34,2.502-0.765  c0.007-0.435,1.177-0.961,1.354-1.177c0.177-0.222,1.235-1.119,0.883-1.295c-0.354-0.176-2.648-0.294-3.355,0  c-0.707,0.293-2.001,1.125-2.414,1.533C56.784,30.493,56.667,31.2,56.667,31.2z"/>
<path fill="#FFFFFF" d="M59.533,26.196c0,0,1.472,0.589,1.708,0.353c0.235-0.235,2.612-0.764,2.748-1.117  c0.136-0.354-0.257-1.35-0.687-1.125c-0.431,0.22-2.459-0.642-2.938-0.288C59.886,24.372,59.533,26.196,59.533,26.196z"/>
<path fill="#FFFFFF" d="M59.845,23.929c0,0-1.235-1.383-2.061-1.324c-0.824,0.06-1.53-0.361-1.824-0.004  c-0.293,0.357-0.323-1.386-0.176-2.358c0.087-0.581,0.812-1.995,0.882-2.583c0.07-0.587,1.145-1.14,1.414-0.47  c0.267,0.668,0.117,3.944-0.06,4.296c-0.178,0.354,0.935-0.094,1.353-0.707c0.42-0.613,1.532-0.44,2.002-0.661  c0.471-0.22,0.58,1.362,0,1.722C60.795,22.2,59.845,23.929,59.845,23.929z"/>
<path fill="#FFFFFF" d="M51.368,28.786c0,0-0.823-0.411-0.823-1.001c0-0.588,0.294-1.971,0.411-2.515  c0.119-0.546,0.766-1.547,0.943-1.606c0.176-0.059,0.529,0.059,0.707,1.06c0.176,1,0.412,2.119,0,2.414  C52.192,27.432,51.368,28.786,51.368,28.786z"/>
<path fill="#FFFFFF" d="M41.777,38.205c0,0-0.234-0.412,0-0.941c0.236-0.53,1.097-1.201,1.177-1.781  c0.083-0.575,1.756-0.758,1.768-1.164c0.01-0.407,1.47-0.824,1.47-0.47c0,0.352-0.374,2.582-0.999,2.816  c-0.626,0.237-1.296,1.361-1.827,1.539C42.837,38.382,41.777,38.205,41.777,38.205z"/>
<path fill="#FFFFFF" d="M42.833,32.863c0,0,0.177-1.947,0.589-2.472c0.413-0.522,1.877-1.932,2.177-1.659  c0.303,0.271,1.062-0.472,1.002,0c-0.061,0.47-0.119,1.884-0.413,2.295c-0.293,0.413-1.735,2.343-2.258,2.119  C43.407,32.922,42.833,32.863,42.833,32.863z"/>
<path fill="#FFFFFF" d="M52.833,20.405c0,0-1.294-2.274-1.142-2.686c0.15-0.412,1.219-2.045,1.335-2.531  c0.114-0.493,1.64-1.06,1.934-1.119c0.295-0.059,0.353,2.23,0,2.812C52.833,20.405,52.833,20.405,52.833,20.405z"/>
<path fill="#FFFFFF" d="M48.871,24.328c0,0-1.622-0.722-1.563-1.076c0.059-0.353-0.283-1.744-0.004-2.118  c0.279-0.376,0.265-2.275,0.828-2.473c0.563-0.203,1.355-1.56,1.59-1.779c0.235-0.222,0.696,0.69,0.574,1.457  c-0.122,0.763-0.987,3.619-0.987,4.032C49.309,22.781,48.871,24.328,48.871,24.328z"/>
<path fill="#FFFFFF" d="M47.193,14.894c0,0,0.173-0.942-0.238-1.295c-0.414-0.354-1.297-1.236-1.648-1.119  c-0.354,0.117-1.635-0.06-1.73,0.236c-0.095,0.293-1.097,0.235-1.097,0.235s-0.823-1.178-0.883-1.53  c-0.059-0.354-0.323-1.413-0.279-1.768c0.044-0.354,0.279-1.588,0.455-1.766c0.177-0.176,1.156,0.199,1.329,0.399  c0.173,0.191,0.673,1.191,0.792,1.485c0.118,0.295,0.471,1.598,0.471,1.598l0.354,0.462c0,0,0.415-1.019,0.764-1.471  c0.338-0.441,1.179-1.413,1.473-1.531c0.293-0.117,0.646-0.235,0.765,0c0.118,0.235,0.234,1.766,0,2.179  c-0.236,0.412-0.527,1.588-0.527,1.588l0.663,0.236c0,0,2.228-0.321,2.689-0.648c0.46-0.331,1.884-0.119,2.002,0.117  c0.119,0.235-0.38,1.241-0.88,1.237c-0.5-0.008-1.324,1.696-1.828,1.354c-0.504-0.346-2.237,0.043-2.237,0.043L47.193,14.894z"/>
<path fill="#FFFFFF" d="M36.888,14.065c0,0-0.824-0.409-0.647-0.879c0.176-0.47,0.065-2.016,0.312-2.472  c0.246-0.456-0.067-2.598,0.334-2.873c0.401-0.277-0.168-0.82,0.411-0.835c0.582-0.019,0.899,1.237,1.126,1.647  c0.229,0.412,0.641,1.531,0.641,2.12c0,0.589-0.084,2.561-0.641,2.708c-0.554,0.144-0.206,0.825-0.783,0.825  C37.063,14.306,36.888,14.065,36.888,14.065z"/>
<path fill="#FFFFFF" d="M39.996,18.801c0,0,0.055,0.449-0.632,0c-0.689-0.448,0.103-1.859-0.015-2.517  c-0.117-0.662,0.29-1.582,0.647-1.914c0.357-0.328,0.412-1.104,0.764-1.222c0.354-0.117,0.789,0.858,0.836,1.222  c0.049,0.368-0.308,1.92,0.003,2.427c0.313,0.509-0.529,1.906-0.882,2.201S39.996,18.801,39.996,18.801z"/>
<path fill="#FFFFFF" d="M36.946,28.37c0,0-0.677-0.592-0.731-0.817c-0.057-0.224-0.026-1.1-0.012-1.336  c0.014-0.234-0.07-0.977,0.038-1.258c0.106-0.279,0.586-1.647,0.706-1.824c0.117-0.177,0.53,0.177,0.647,0.794  c0.118,0.618,0.626,1.311,0.46,2.288c-0.165,0.98-0.577,2.153-0.577,2.153H36.946z"/>
<circle fill="#FEB848" cx="13.942" cy="24.794" r="1.193"/>
<path fill="#FEB848" d="M26.85,14.847c0,0.664-0.536,1.2-1.196,1.2c-0.659,0-1.194-0.536-1.194-1.2c0-0.66,0.535-1.195,1.194-1.195  C26.313,13.652,26.85,14.188,26.85,14.847z"/>
<path fill="#FEB848" d="M46.355,14.698c0,0.655-0.535,1.195-1.197,1.195c-0.659,0-1.192-0.54-1.192-1.195  c0-0.659,0.533-1.2,1.192-1.2C45.82,13.499,46.355,14.04,46.355,14.698z"/>
<circle fill="#FEB848" cx="57.073" cy="24.676" r="1.197"/>
<path fill="#FFFFFF" d="M28.441,65.334c0.453-0.014,0.837,0.38,0.849,0.867c0.009,0.474-0.323,0.844-0.778,0.869  c-0.539,0.025-0.881-0.303-0.887-0.855C27.617,65.698,27.942,65.347,28.441,65.334"/>
<path fill="#FFFFFF" d="M42.972,65.607c0.509-0.007,0.859,0.348,0.871,0.886c0.011,0.466-0.382,0.868-0.833,0.866  c-0.479-0.011-0.822-0.369-0.828-0.866C42.174,65.979,42.495,65.618,42.972,65.607"/>
<path fill="#FFFFFF" d="M35.739,67.361c0.443,0.01,0.841,0.451,0.819,0.908c-0.024,0.473-0.384,0.854-0.802,0.85  c-0.498-0.006-0.885-0.412-0.879-0.912C34.885,67.738,35.279,67.352,35.739,67.361"/>
<path fill="#FFFFFF" d="M49.054,69.936c-0.486,0.006-0.866-0.355-0.875-0.827c-0.011-0.526,0.34-0.895,0.859-0.892  c0.471,0,0.833,0.365,0.848,0.856C49.902,69.546,49.53,69.936,49.054,69.936"/>
<path fill="#FFFFFF" d="M22.342,68.098c0.452-0.02,0.835,0.381,0.843,0.867c0.011,0.473-0.321,0.841-0.773,0.863  c-0.539,0.029-0.884-0.298-0.889-0.851C21.518,68.461,21.84,68.109,22.342,68.098"/>
</svg>